<?xml version="1.0" encoding="utf-8"?>
<!-- Generator: Adobe Illustrator 16.2.1, SVG Export Plug-In . SVG Version: 6.00 Build 0)  -->
<!DOCTYPE svg PUBLIC "-//W3C//DTD SVG 1.1//EN" "http://www.w3.org/Graphics/SVG/1.1/DTD/svg11.dtd" [
	<!ENTITY ns_extend "http://ns.adobe.com/Extensibility/1.0/">
	<!ENTITY ns_ai "http://ns.adobe.com/AdobeIllustrator/10.0/">
	<!ENTITY ns_graphs "http://ns.adobe.com/Graphs/1.0/">
	<!ENTITY ns_vars "http://ns.adobe.com/Variables/1.0/">
	<!ENTITY ns_imrep "http://ns.adobe.com/ImageReplacement/1.0/">
	<!ENTITY ns_sfw "http://ns.adobe.com/SaveForWeb/1.0/">
	<!ENTITY ns_custom "http://ns.adobe.com/GenericCustomNamespace/1.0/">
	<!ENTITY ns_adobe_xpath "http://ns.adobe.com/XPath/1.0/">
]>
<svg version="1.1" id="Ebene_1" xmlns:x="&ns_extend;" xmlns:i="&ns_ai;" xmlns:graph="&ns_graphs;"
	 xmlns="http://www.w3.org/2000/svg" xmlns:xlink="http://www.w3.org/1999/xlink" x="0px" y="0px" width="528px"
	 height="70px" viewBox="0 0 528 70" enable-background="new 0 0 528 70" xml:space="preserve">
<metadata>
	<sfw  xmlns="&ns_sfw;">
		<slices></slices>
		<sliceSourceBounds  y="-461.84" x="28" height="84.095" width="529.002" bottomLeftOrigin="true"></sliceSourceBounds>
	</sfw>
</metadata>
<g>
	<g>
		<defs>
			<rect id="SVGID_1_" width="528.999" height="84.095"/>
		</defs>
		<clipPath id="SVGID_2_">
			<use xlink:href="#SVGID_1_"  overflow="visible"/>
		</clipPath>
		<path clip-path="url(#SVGID_2_)" fill="#FFFFFF" d="M18.506,58.548c-4.843,0-9.323-1.834-12.614-5.171
			c-3.377-3.422-5.236-8.201-5.236-13.456c0-5.104,1.9-9.882,5.353-13.453c3.453-3.562,8.063-5.523,12.99-5.523
			c4.588,0,8.913,1.751,11.97,4.832l-4.398,4.576c-2.202-1.928-4.794-2.906-7.715-2.906c-5.987,0-10.502,5.273-10.502,12.262
			c0,3.423,1.033,6.536,2.906,8.769c1.932,2.299,4.68,3.564,7.739,3.564c3.31,0,6.012-1.035,8.228-3.166l4.175,4.288
			C28.034,56.787,23.811,58.548,18.506,58.548"/>
		<path clip-path="url(#SVGID_2_)" fill="#FFFFFF" d="M54.484,58.546c-10.831,0-18.694-7.83-18.694-18.626
			c0-10.64,8.337-18.976,18.978-18.976c10.833,0,18.693,7.833,18.693,18.623C73.462,50.211,65.127,58.546,54.484,58.546
			 M54.628,27.307c-6.534,0-11.278,5.216-11.278,12.402c0,7.348,4.636,12.475,11.278,12.475c6.534,0,11.277-5.214,11.277-12.401
			c0-3.452-1.082-6.593-3.047-8.848C60.79,28.562,57.944,27.307,54.628,27.307"/>
		<path clip-path="url(#SVGID_2_)" fill="#FFFFFF" d="M123.476,57.846h-6.983l-1.636-19.523c-0.35-4.017-0.42-8.082-0.42-8.122
			c-0.008-0.355-0.299-0.642-0.656-0.642h-0.139c-0.311,0-0.578,0.219-0.642,0.52c-0.007,0.039-0.851,4.089-1.954,7.603
			l-6.191,20.164H98.43L92.243,37.83c-1.105-3.661-2.019-7.719-2.028-7.761c-0.068-0.297-0.331-0.509-0.637-0.509h-0.139
			c-0.359,0-0.649,0.286-0.656,0.642c0,0.04-0.073,4.103-0.417,7.975l-1.641,19.671h-6.487l3.53-36.27h10.043l5.625,18.114
			c0.969,3.051,1.951,6.897,1.961,6.938c0.075,0.287,0.335,0.491,0.634,0.491s0.556-0.204,0.632-0.491
			c0.01-0.041,0.993-3.893,1.891-6.872l5.56-18.181h9.831L123.476,57.846z"/>
		<path clip-path="url(#SVGID_2_)" fill="#FFFFFF" d="M175.894,57.846h-6.986l-1.635-19.523c-0.348-4.017-0.42-8.082-0.42-8.122
			c-0.007-0.355-0.297-0.642-0.654-0.642h-0.141c-0.308,0-0.576,0.219-0.639,0.52c-0.008,0.039-0.851,4.089-1.954,7.603
			l-6.194,20.164h-6.422l-6.191-20.017c-1.103-3.661-2.015-7.719-2.024-7.761c-0.068-0.297-0.33-0.509-0.637-0.509h-0.143
			c-0.355,0-0.646,0.286-0.651,0.642c-0.003,0.04-0.076,4.103-0.42,7.975l-1.641,19.671h-6.488l3.531-36.27h10.045l5.625,18.114
			c0.97,3.051,1.952,6.899,1.961,6.938c0.075,0.287,0.335,0.491,0.634,0.491s0.559-0.204,0.632-0.491
			c0.01-0.041,0.992-3.893,1.893-6.872l5.558-18.181h9.83L175.894,57.846z"/>
		<path clip-path="url(#SVGID_2_)" fill="#FFFFFF" d="M209.367,57.846h-23.109v-36.27h22.897v5.872h-15.389
			c-0.359,0-0.653,0.291-0.653,0.655v7.949c0,0.361,0.294,0.651,0.653,0.651h13.139v5.731h-13.139c-0.359,0-0.653,0.294-0.653,0.654
			v8.23c0,0.361,0.294,0.656,0.653,0.656h15.601V57.846z"/>
		<path clip-path="url(#SVGID_2_)" fill="#FFFFFF" d="M247.031,57.846h-8.172l-7.832-13.327c-0.119-0.201-0.333-0.324-0.564-0.324
			h-2.604c-0.362,0-0.654,0.292-0.654,0.652v12.999h-6.852v-36.27h10.602c5.38,0,9.188,0.988,11.645,3.016
			c2.236,1.851,3.324,4.586,3.324,8.363c0,4.578-2.548,8.062-7.178,9.804c-0.18,0.068-0.323,0.214-0.386,0.397
			c-0.063,0.185-0.041,0.388,0.058,0.553L247.031,57.846z M227.859,27.307c-0.362,0-0.654,0.292-0.654,0.653v9.993
			c0,0.364,0.292,0.653,0.654,0.653h3.377c5.079,0,7.547-1.848,7.547-5.649c0-3.8-2.469-5.649-7.547-5.649H227.859z"/>
		<path clip-path="url(#SVGID_2_)" fill="#FFFFFF" d="M278.535,57.846h-24.871v-5.349l15.447-24.043
			c0.126-0.202,0.139-0.457,0.022-0.665c-0.112-0.211-0.331-0.34-0.571-0.34h-14.546v-5.872h24.163v5.348l-15.444,24.043
			c-0.128,0.201-0.136,0.459-0.022,0.668c0.112,0.209,0.333,0.341,0.574,0.341h15.248V57.846z"/>
		<path clip-path="url(#SVGID_2_)" fill="#FFFFFF" d="M302.014,57.846h-13.697v-36.27h12.36c8.915,0,13.065,2.856,13.065,8.987
			c0,3.741-2.113,6.54-5.798,7.678c-0.271,0.086-0.456,0.338-0.456,0.626v0.069c0,0.328,0.24,0.605,0.563,0.65
			c4.665,0.599,7.453,3.617,7.453,8.077C315.505,55.178,308.238,57.846,302.014,57.846 M295.824,42.366
			c-0.364,0-0.656,0.294-0.656,0.655v8.441c0,0.362,0.292,0.654,0.656,0.654h6.053c4.398,0,6.632-1.687,6.632-5.019
			c0-2.159-1.149-4.732-6.632-4.732H295.824z M295.824,27.307c-0.364,0-0.656,0.292-0.656,0.653v8.164
			c0,0.361,0.292,0.651,0.656,0.651h5.062c3.399,0,5.509-1.869,5.509-4.875c0-2.918-2.131-4.594-5.856-4.594H295.824z"/>
		<path clip-path="url(#SVGID_2_)" fill="#FFFFFF" d="M354.831,57.844h-7.402l-2.451-7.225c-0.091-0.265-0.341-0.444-0.62-0.444
			h-14.631c-0.284,0-0.532,0.18-0.619,0.444l-2.457,7.225h-6.838l12.905-36.266h9.21L354.831,57.844z M337.044,27.87
			c-0.297,0-0.555,0.197-0.632,0.478c-0.008,0.025-0.71,2.553-1.614,5.32l-3.302,9.918c-0.066,0.198-0.034,0.418,0.09,0.591
			c0.126,0.168,0.323,0.268,0.529,0.268h9.852c0.211,0,0.41-0.1,0.529-0.268c0.124-0.173,0.156-0.39,0.093-0.591l-3.308-9.992
			c-0.901-2.699-1.606-5.221-1.613-5.246C337.591,28.065,337.335,27.87,337.044,27.87"/>
		<path clip-path="url(#SVGID_2_)" fill="#FFFFFF" d="M391.304,57.846h-6.247l-12.543-18.432c-1.93-2.901-3.682-5.912-3.704-5.942
			c-0.118-0.207-0.335-0.324-0.563-0.324c-0.063,0-0.126,0.008-0.189,0.027c-0.289,0.088-0.481,0.361-0.462,0.665
			c0.006,0.035,0.212,3.466,0.212,6.786v17.22h-6.296v-36.27h6.813l11.975,17.587c1.935,2.901,3.69,5.912,3.711,5.941
			c0.114,0.207,0.333,0.327,0.561,0.327c0.063,0,0.127-0.01,0.192-0.028c0.287-0.086,0.481-0.363,0.459-0.667
			c0-0.032-0.206-3.466-0.206-6.782V21.577h6.288V57.846z"/>
		<path clip-path="url(#SVGID_2_)" fill="#FFFFFF" d="M430.007,57.846h-8.479l-11.836-17.308c-0.122-0.181-0.329-0.283-0.537-0.283
			c-0.069,0-0.132,0.008-0.195,0.027c-0.272,0.085-0.456,0.339-0.456,0.625v16.939h-6.858v-36.27h6.858V37.81
			c0,0.288,0.184,0.539,0.456,0.625c0.065,0.022,0.126,0.029,0.195,0.029c0.208,0,0.417-0.107,0.541-0.289l11.131-16.599h7.813
			l-11.718,16.419c-0.161,0.225-0.162,0.522-0.004,0.747L430.007,57.846z"/>
		<path clip-path="url(#SVGID_2_)" fill="#FFFFFF" d="M510.037,70.587h-21.176h-21.175L449.13,38.445
			c0-0.004-0.003-0.007-0.007-0.012l-0.03-0.057l0.559-0.978l20.611-35.696h0.219h0.021h36.958l21.174,36.674l-0.082,0.135
			c-0.003,0.007-0.006,0.01-0.006,0.015l-8.213,14.22l-10.11,17.516c-0.003,0.007-0.008,0.011-0.01,0.014L510.037,70.587z
			 M488.861,7.245c-0.095,0-0.188,0.042-0.25,0.116c-2.029,2.396-3.475,4.9-3.953,5.725l-9.253,16.031l-9.262,16.035
			c-0.474,0.824-1.919,3.327-2.979,6.284c-0.031,0.093-0.024,0.189,0.025,0.274c0.048,0.083,0.13,0.139,0.225,0.158
			c3.095,0.561,5.98,0.561,6.933,0.561h18.514h18.515c0.949,0,3.844,0,6.935-0.561c0.09-0.02,0.175-0.075,0.222-0.158
			c0.048-0.085,0.058-0.182,0.023-0.274c-1.06-2.957-2.502-5.46-2.979-6.284l-9.256-16.035l-9.259-16.031
			c-1.293-2.239-2.584-4.113-3.95-5.725C489.047,7.288,488.956,7.245,488.861,7.245"/>
		<path clip-path="url(#SVGID_2_)" d="M18.506,59.203c5.839,0,10.345-2.112,13.791-6.054l-5.067-5.205
			c-2.109,2.253-4.785,3.448-8.23,3.448c-5.98,0-9.992-4.996-9.992-11.682c0-6.472,4.083-11.608,9.849-11.608
			c3.027,0,5.627,1.125,7.742,3.166l5.278-5.487c-3.098-3.378-7.669-5.49-12.877-5.49c-10.556,0-19,8.725-19,19.631
			C0,51.32,8.303,59.203,18.506,59.203"/>
		<path clip-path="url(#SVGID_2_)" d="M54.628,51.533c-6.474,0-10.625-5.137-10.625-11.823c0-6.332,4.01-11.75,10.625-11.75
			c6.471,0,10.621,5.137,10.621,11.82C65.249,46.115,61.24,51.533,54.628,51.533 M54.487,59.203
			c11.187,0,19.629-8.795,19.629-19.635c0-10.975-7.951-19.277-19.347-19.277c-11.188,0-19.631,8.795-19.631,19.631
			C35.137,50.901,43.088,59.203,54.487,59.203"/>
		<path clip-path="url(#SVGID_2_)" d="M105.338,58.498l6.333-20.618c1.125-3.588,1.971-7.669,1.971-7.669h0.139
			c0,0,0.073,4.081,0.422,8.164l1.691,20.123h8.301l-3.66-37.573h-10.906l-5.7,18.643c-0.912,3.031-1.898,6.897-1.898,6.897
			s-0.982-3.866-1.971-6.964l-5.769-18.576H83.174l-3.659,37.573h7.81l1.688-20.264c0.352-3.942,0.425-8.023,0.425-8.023h0.139
			c0,0,0.917,4.081,2.041,7.811l6.333,20.476H105.338z"/>
		<path clip-path="url(#SVGID_2_)" d="M157.755,58.498l6.332-20.618c1.127-3.588,1.971-7.669,1.971-7.669h0.141
			c0,0,0.073,4.081,0.423,8.164l1.687,20.123h8.305l-3.659-37.573h-10.906l-5.698,18.643c-0.916,3.031-1.9,6.897-1.9,6.897
			s-0.986-3.866-1.973-6.964l-5.769-18.576h-11.115l-3.662,37.573h7.812l1.689-20.264c0.35-3.942,0.423-8.023,0.423-8.023h0.139
			c0,0,0.916,4.081,2.041,7.811l6.332,20.476H157.755z"/>
		<polygon clip-path="url(#SVGID_2_)" points="185.604,58.498 210.018,58.498 210.018,51.322 193.764,51.322 193.764,43.087 
			207.556,43.087 207.556,36.053 193.764,36.053 193.764,28.102 209.807,28.102 209.807,20.924 185.604,20.924 		"/>
		<path clip-path="url(#SVGID_2_)" d="M238.135,32.956c0,3.517-2.325,4.996-6.898,4.996h-3.377v-9.993h3.377
			C235.598,27.959,238.135,29.298,238.135,32.956 M248.195,58.498l-9.216-15.129c4.85-1.828,7.595-5.559,7.595-10.413
			c0-7.6-4.289-12.032-15.62-12.032h-11.256v37.573h8.161v-13.65h2.604l8.021,13.65H248.195z"/>
		<polygon clip-path="url(#SVGID_2_)" points="253.013,58.498 279.187,58.498 279.187,51.322 263.287,51.322 278.834,27.116 
			278.834,20.924 253.366,20.924 253.366,28.102 268.563,28.102 253.013,52.306 		"/>
		<path clip-path="url(#SVGID_2_)" d="M295.824,43.019h6.053c3.655,0,5.978,1.123,5.978,4.079c0,2.888-1.827,4.364-5.978,4.364
			h-6.053V43.019z M295.824,27.959h4.714c2.603,0,5.205,0.843,5.205,3.941c0,3.023-2.248,4.223-4.854,4.223h-5.064V27.959z
			 M287.662,58.498h14.352c6.687,0,14.145-3.025,14.145-10.833c0-4.854-3.096-8.097-8.021-8.727v-0.069
			c3.87-1.2,6.265-4.153,6.265-8.304c0-8.164-7.178-9.64-13.728-9.64h-13.012V58.498z"/>
		<path clip-path="url(#SVGID_2_)" d="M327.122,58.498l2.603-7.669h14.633l2.603,7.669h8.797L342.39,20.926h-10.134l-13.369,37.572
			H327.122z M341.967,43.792h-9.852l3.31-9.924c0.916-2.814,1.621-5.348,1.621-5.348s0.697,2.534,1.616,5.279L341.967,43.792z"/>
		<path clip-path="url(#SVGID_2_)" d="M360.856,58.498h7.604v-17.87c0-3.38-0.214-6.826-0.214-6.826s1.762,3.023,3.73,5.977
			l12.735,18.719h7.249V20.924h-7.602v17.028c0,3.379,0.211,6.826,0.211,6.826s-1.758-3.026-3.731-5.982l-12.17-17.871h-7.812
			V58.498z"/>
		<polygon clip-path="url(#SVGID_2_)" points="400.99,20.926 400.99,58.498 409.152,58.498 409.152,40.908 421.184,58.498 
			431.246,58.498 417.455,38.375 429.906,20.926 420.479,20.926 409.152,37.81 409.152,20.926 		"/>
	</g>
	<g>
		<defs>
			<path id="SVGID_3_" d="M499.597,1.373c-1.455,0-5.783,0.002-10.81,6.109c0.062,0.077,0.128,0.157,0.193,0.232
				c1.293-1.507,2.911-3.051,4.65-4.175c1.609-1.04,3.474-1.727,5.017-1.897c1.122-0.126,4.843-0.079,9.078-0.079
				c0.022,0,0.033,0.009,0.046,0.024l-0.108-0.188c-0.012-0.012-0.025-0.025-0.042-0.025H499.597z"/>
		</defs>
		<clipPath id="SVGID_4_">
			<use xlink:href="#SVGID_3_"  overflow="visible"/>
		</clipPath>
		
			<radialGradient id="SVGID_5_" cx="-27.1069" cy="445.0288" r="2.5086" gradientTransform="matrix(24.9017 0 0 -24.9017 1189.6851 11145.4434)" gradientUnits="userSpaceOnUse">
			<stop  offset="0" style="stop-color:#FFDF4F"/>
			<stop  offset="0.1374" style="stop-color:#FFD137"/>
			<stop  offset="0.3217" style="stop-color:#FFC31A"/>
			<stop  offset="0.44" style="stop-color:#FEBE10"/>
			<stop  offset="0.6086" style="stop-color:#FCBA12"/>
			<stop  offset="0.7543" style="stop-color:#F5AF15"/>
			<stop  offset="0.8911" style="stop-color:#ED9F18"/>
			<stop  offset="0.9" style="stop-color:#ED9D19"/>
			<stop  offset="1" style="stop-color:#E0861A"/>
		</radialGradient>
		<rect x="488.784" y="1.373" clip-path="url(#SVGID_4_)" fill="url(#SVGID_5_)" width="18.987" height="6.341"/>
	</g>
	<g>
		<defs>
			<path id="SVGID_6_" d="M470.102,1.373c-0.014,0.002-0.031,0.01-0.041,0.025l-15.75,27.281l-4.94,8.557l-0.571,0.991l-0.074,0.127
				c-0.006,0.013-0.006,0.03,0.004,0.047l15.006,25.987v-0.107c-0.326-0.594-0.562-1.055-0.686-1.347
				c-0.627-1.419-0.982-3.382-0.89-5.292c0.253-5.032,2.928-9.999,4.274-12.328c3.153-5.468,9.253-16.034,9.253-16.034
				s6.102-10.565,9.256-16.033c1.344-2.33,4.308-7.125,8.54-9.858c1.605-1.037,3.49-1.709,5.029-1.881
				c1.126-0.125,4.868-0.135,9.109-0.135H470.102z"/>
		</defs>
		<clipPath id="SVGID_7_">
			<use xlink:href="#SVGID_6_"  overflow="visible"/>
		</clipPath>
		
			<radialGradient id="SVGID_8_" cx="-27.4966" cy="446.5396" r="2.4901" gradientTransform="matrix(24.92 0 0 -24.92 1183.6819 11129.2031)" gradientUnits="userSpaceOnUse">
			<stop  offset="0" style="stop-color:#FFDF4F"/>
			<stop  offset="0.1374" style="stop-color:#FFD137"/>
			<stop  offset="0.3217" style="stop-color:#FFC31A"/>
			<stop  offset="0.44" style="stop-color:#FEBE10"/>
			<stop  offset="0.6086" style="stop-color:#FCBA12"/>
			<stop  offset="0.7543" style="stop-color:#F5AF15"/>
			<stop  offset="0.8911" style="stop-color:#ED9F18"/>
			<stop  offset="0.9" style="stop-color:#ED9D19"/>
			<stop  offset="1" style="stop-color:#E0861A"/>
		</radialGradient>
		<rect x="448.719" y="1.373" clip-path="url(#SVGID_7_)" fill="url(#SVGID_8_)" width="58.902" height="63.015"/>
	</g>
	<g>
		<defs>
			<path id="SVGID_9_" d="M524.326,46.221c-0.919,1.249-2.439,2.542-4.142,3.414c-4.486,2.299-10.119,2.464-12.807,2.464h-18.517
				h-18.511c-2.688,0-8.33-0.165-12.809-2.464c-1.704-0.872-3.228-2.165-4.146-3.414c-0.584-0.793-2.075-3.334-3.841-6.394
				l3.763,6.526l14.169,24.539c0.009,0.012,0.025,0.021,0.04,0.021h42.672c0.012,0,0.028-0.011,0.037-0.023l18.593-32.201
				C526.779,42.241,524.983,45.333,524.326,46.221 M448.853,38.611c0.238,0.41,0.472,0.818,0.703,1.216L448.853,38.611z"/>
		</defs>
		<clipPath id="SVGID_10_">
			<use xlink:href="#SVGID_9_"  overflow="visible"/>
		</clipPath>
		
			<radialGradient id="SVGID_11_" cx="-28.5801" cy="445.4536" r="2.4885" gradientTransform="matrix(24.9101 0 0 -24.9101 1165.1547 11142.709)" gradientUnits="userSpaceOnUse">
			<stop  offset="0" style="stop-color:#FFDF4F"/>
			<stop  offset="0.1374" style="stop-color:#FFD137"/>
			<stop  offset="0.3217" style="stop-color:#FFC31A"/>
			<stop  offset="0.44" style="stop-color:#FEBE10"/>
			<stop  offset="0.6086" style="stop-color:#FCBA12"/>
			<stop  offset="0.7543" style="stop-color:#F5AF15"/>
			<stop  offset="0.8911" style="stop-color:#ED9F18"/>
			<stop  offset="0.9" style="stop-color:#ED9D19"/>
			<stop  offset="1" style="stop-color:#E0861A"/>
		</radialGradient>
		<rect x="448.853" y="38.611" clip-path="url(#SVGID_10_)" fill="url(#SVGID_11_)" width="79.977" height="32.303"/>
	</g>
	<g>
		<defs>
			<path id="SVGID_12_" d="M498.512,1.508c-1.539,0.172-3.424,0.844-5.029,1.881c-1.771,1.142-3.319,2.647-4.621,4.184
				c1.811,2.132,3.138,4.321,3.92,5.675c3.154,5.467,9.258,16.033,9.258,16.033s6.099,10.566,9.259,16.034
				c1.341,2.329,4.016,7.296,4.267,12.328c0.095,1.91-0.267,3.873-0.887,5.292c-0.436,0.995-2.165,4.012-4.173,7.489l18.494-32.03
				c0-0.002,0.003-0.004,0.003-0.007v-0.019c0-0.005-0.003-0.013-0.006-0.018l-21.333-36.95c-0.012-0.012-0.025-0.023-0.042-0.025
				C503.38,1.373,499.638,1.383,498.512,1.508"/>
		</defs>
		<clipPath id="SVGID_13_">
			<use xlink:href="#SVGID_12_"  overflow="visible"/>
		</clipPath>
		
			<radialGradient id="SVGID_14_" cx="-27.1182" cy="445.0806" r="2.4878" gradientTransform="matrix(24.9799 0 0 -24.9799 1192.0309 11181.1543)" gradientUnits="userSpaceOnUse">
			<stop  offset="0" style="stop-color:#FFDF4F"/>
			<stop  offset="0.1374" style="stop-color:#FFD137"/>
			<stop  offset="0.3217" style="stop-color:#FFC31A"/>
			<stop  offset="0.44" style="stop-color:#FEBE10"/>
			<stop  offset="0.6086" style="stop-color:#FCBA12"/>
			<stop  offset="0.7543" style="stop-color:#F5AF15"/>
			<stop  offset="0.8911" style="stop-color:#ED9F18"/>
			<stop  offset="0.9" style="stop-color:#ED9D19"/>
			<stop  offset="1" style="stop-color:#E0861A"/>
		</radialGradient>
		<rect x="488.861" y="1.373" clip-path="url(#SVGID_13_)" fill="url(#SVGID_14_)" width="40.141" height="69.05"/>
	</g>
</g>
</svg>
