<?xml version="1.0" encoding="UTF-8" standalone="no"?>
<svg width="168px" height="32px" viewBox="0 0 168 32" version="1.1" xmlns="http://www.w3.org/2000/svg" xmlns:xlink="http://www.w3.org/1999/xlink" xmlns:sketch="http://www.bohemiancoding.com/sketch/ns">
    <!-- Generator: Sketch 3.4.4 (17249) - http://www.bohemiancoding.com/sketch -->
    <title>comdirect-logo</title>
    <desc>Created with Sketch.</desc>
    <defs></defs>
    <g id="Style-Guide" stroke="none" stroke-width="1" fill="none" fill-rule="evenodd" sketch:type="MSPage">
        <g id="Icons" sketch:type="MSArtboardGroup" transform="translate(-931.000000, -324.000000)" fill="#FFF500">
            <path d="M941.247234,334.384724 C935.651507,334.384724 932,338.366261 932,343.631958 C932,348.897163 935.651507,352.8787 941.247234,352.8787 C943.870724,352.8787 946.219353,351.92457 947.815318,350.071478 L945.448955,347.429763 C944.32981,348.475513 942.824973,349.264136 941.137389,349.264136 C938.183377,349.264136 935.945086,346.952451 935.945086,343.631958 C935.945086,340.310973 938.183377,337.999288 941.137389,337.999288 C942.824973,337.999288 944.127852,338.65984 945.356843,339.815436 L947.815318,337.191947 C946.255804,335.338855 943.870724,334.384724 941.247234,334.384724 L941.247234,334.384724 Z M959.190504,334.384724 C953.759792,334.384724 949.741804,338.366261 949.741804,343.631958 C949.741804,348.897163 953.759792,352.8787 959.190504,352.8787 C964.621217,352.8787 968.657923,348.897163 968.657923,343.631958 C968.657923,338.366261 964.621217,334.384724 959.190504,334.384724 L959.190504,334.384724 Z M959.190504,337.999288 C962.327757,337.999288 964.713329,340.310973 964.713329,343.631958 C964.713329,346.952451 962.327757,349.264136 959.190504,349.264136 C956.053252,349.264136 953.686398,346.952451 953.686398,343.631958 C953.686398,340.310973 956.053252,337.999288 959.190504,337.999288 L959.190504,337.999288 Z M990.245558,334.423934 C987.953083,334.423934 986.345789,335.267233 985.081332,336.452877 C984.027208,335.29334 982.709552,334.423934 980.443677,334.423934 C978.810276,334.423934 977.308395,335.319939 976.570507,336.11004 L976.570507,334.818984 L972.670739,334.818984 L972.670739,352.420402 L976.570507,352.420402 L976.570507,339.746278 C977.255688,338.929577 978.30932,338.165583 979.916614,338.165583 C982.235688,338.165583 983.28932,340.167928 983.28932,342.882052 L983.28932,352.420402 L987.189089,352.420402 L987.189089,339.746278 C987.926976,338.929577 988.769783,338.165583 990.245558,338.165583 C992.906976,338.165583 993.907902,340.167928 993.907902,342.882052 L993.907902,352.420402 L997.807671,352.420402 L997.807671,343.435221 C997.807671,338.086278 995.620608,334.423934 990.245558,334.423934 M1009.95793,334.384724 C1005.04099,334.384724 1001.16929,338.255923 1001.16929,343.631958 C1001.16929,349.007501 1005.04099,352.8787 1009.95793,352.8787 C1012.45286,352.8787 1014.2695,351.869401 1015.48027,350.309887 L1015.48027,352.420107 L1019.31501,352.420107 L1019.31501,326 L1015.48027,326 L1015.48027,336.971763 C1014.2695,335.412249 1012.45286,334.384724 1009.95793,334.384724 L1009.95793,334.384724 Z M1010.41653,337.999288 C1013.59072,337.999288 1015.71868,340.420819 1015.71868,343.631958 C1015.71868,346.842605 1013.59072,349.264136 1010.41653,349.264136 C1007.11377,349.264136 1005.11438,346.714042 1005.11438,343.631958 C1005.11438,340.549383 1007.11377,337.999288 1010.41653,337.999288 L1010.41653,337.999288 Z M1028.45142,334.843318 L1024.59845,334.843318 L1024.59845,352.420107 L1028.45142,352.420107 L1028.45142,334.843318 Z M1042.63383,334.384724 C1040.48716,334.384724 1038.68923,335.155122 1037.53315,336.824973 L1037.53315,334.843318 L1033.73534,334.843318 L1033.73534,352.420107 L1037.57009,352.420107 L1037.57009,342.751223 C1037.57009,339.760267 1039.31284,338.035739 1041.75309,338.035739 C1042.689,338.035739 1043.86331,338.255923 1044.67016,338.678065 L1045.58784,334.880261 C1044.7071,334.531513 1043.80814,334.384724 1042.63383,334.384724 L1042.63383,334.384724 Z M1055.51385,334.384724 C1050.33977,334.384724 1046.76215,338.127359 1046.76215,343.631958 C1046.76215,349.20946 1050.48656,352.8787 1055.75226,352.8787 C1058.41269,352.8787 1060.83423,352.236374 1062.9809,350.402 L1061.07264,347.668172 C1059.62346,348.823769 1057.75214,349.521264 1055.99067,349.521264 C1053.49525,349.521264 1051.27519,348.20016 1050.76192,345.044682 L1063.75129,345.044682 C1063.78824,344.604315 1063.82469,344.108777 1063.82469,343.61324 C1063.80646,338.127359 1060.4308,334.384724 1055.51385,334.384724 L1055.51385,334.384724 Z M1055.44046,337.797329 C1057.88021,337.797329 1059.47667,339.393294 1059.89881,342.127122 L1050.78014,342.127122 C1051.18357,339.558801 1052.70663,337.797329 1055.44046,337.797329 L1055.44046,337.797329 Z M1075.82398,334.384724 C1070.22776,334.384724 1066.57674,338.366261 1066.57674,343.631958 C1066.57674,348.897163 1070.22776,352.8787 1075.82398,352.8787 C1078.44747,352.8787 1080.79609,351.92457 1082.39206,350.071478 L1080.0252,347.429763 C1078.90606,348.475513 1077.40172,349.264136 1075.71364,349.264136 C1072.76012,349.264136 1070.52134,346.952451 1070.52134,343.631958 C1070.52134,340.310973 1072.76012,337.999288 1075.71364,337.999288 C1077.40172,337.999288 1078.70459,338.65984 1079.93358,339.815436 L1082.39206,337.191947 C1080.83255,335.338855 1078.44747,334.384724 1075.82398,334.384724 L1075.82398,334.384724 Z M1085.97756,346.05349 C1085.97756,350.73203 1088.30747,352.8787 1092.28901,352.8787 C1094.49036,352.8787 1096.27005,352.089585 1097.68278,351.135947 L1096.16021,348.071596 C1095.11446,348.732148 1093.81158,349.264136 1092.61904,349.264136 C1091.07775,349.264136 1089.83053,348.34695 1089.83053,345.980095 L1089.83053,338.329318 L1096.56363,338.329318 L1096.56363,334.843318 L1089.83053,334.843318 L1089.83053,329.522944 L1085.97756,329.522944 L1085.97756,346.05349 Z" id="Fill-3" sketch:type="MSShapeGroup"></path>
        </g>
    </g>
</svg>